<?xml version="1.0" encoding="utf-8"?>
<!-- Generator: Adobe Illustrator 19.0.0, SVG Export Plug-In . SVG Version: 6.00 Build 0)  -->
<svg version="1.1" id="Layer_1" xmlns="http://www.w3.org/2000/svg" xmlns:xlink="http://www.w3.org/1999/xlink" x="0px" y="0px"
	 viewBox="0 0 332.3 332.3" style="enable-background:new 0 0 332.3 332.3;" xml:space="preserve">
<style type="text/css">
	.st0{fill:#121312;}
	.st1{fill:#FFD840;}
	.st2{fill:#EE4423;}
</style>
<circle id="XMLID_8_" class="st0" cx="166.1" cy="166.1" r="166.1"/>
<g id="XMLID_4_">
	<path id="XMLID_7_" class="st1" d="M20.2,166.6c28.2-51.7,83-86.7,145.9-86.7s117.8,35,145.9,86.7"/>
	<path id="XMLID_6_" class="st1" d="M312.1,166.6c-28.2,51.7-83,86.7-145.9,86.7c-63,0-117.8-35-145.9-86.7"/>
	<path id="XMLID_5_" class="st1" d="M166.1,253.3c63,0,117.8-35,145.9-86.7c-28.2-51.7-83-86.7-145.9-86.7s-117.8,35-145.9,86.7
		C48.4,218.2,103.1,253.3,166.1,253.3z"/>
</g>
<circle id="XMLID_3_" class="st0" cx="166.1" cy="167.1" r="62.3"/>
<circle id="XMLID_2_" class="st2" cx="166.1" cy="167.1" r="20.8"/>
</svg>
